<svg width="242" height="207" viewBox="0 0 242 207" fill="none" xmlns="http://www.w3.org/2000/svg">
<g clip-path="url(#clip0_6_112)">
<path d="M18.172 189.962C19.5665 190.451 21.0637 190.573 22.5194 190.317C23.9751 190.062 25.3402 189.437 26.4833 188.503C29.3943 186.067 30.3072 182.056 31.0496 178.34L33.2461 167.351L28.6475 170.507C25.3402 172.777 21.9586 175.12 19.6689 178.407C17.3792 181.695 16.3803 186.184 18.2195 189.741" fill="#E6E6E6"/>
<path d="M18.8822 204.032C18.3034 199.828 17.7079 195.571 18.1148 191.322C18.4755 187.549 19.6304 183.864 21.9815 180.842C23.2294 179.241 24.748 177.869 26.4688 176.788C26.9174 176.506 27.3305 177.215 26.8837 177.496C23.9061 179.372 21.603 182.141 20.3064 185.406C18.8745 189.036 18.6446 192.994 18.8912 196.85C19.0403 199.183 19.3571 201.499 19.6753 203.814C19.7004 203.918 19.6847 204.028 19.6314 204.122C19.5781 204.216 19.4911 204.285 19.3881 204.318C19.283 204.346 19.1709 204.332 19.0763 204.278C18.9816 204.224 18.912 204.136 18.8825 204.031L18.8822 204.032Z" fill="#F2F2F2"/>
<path d="M23.0483 197.287C23.6463 198.193 24.4684 198.931 25.4353 199.428C26.4022 199.926 27.4814 200.167 28.5689 200.128C31.3642 199.996 33.6937 198.052 35.7905 196.206L41.9937 190.746L37.8884 190.55C34.936 190.409 31.9074 190.277 29.0953 191.186C26.2833 192.094 23.6899 194.278 23.1758 197.179" fill="#E6E6E6"/>
<path d="M17.246 206.448C20.0326 201.533 23.2645 196.071 29.0399 194.325C30.6456 193.841 32.3293 193.668 34.0003 193.815C34.527 193.86 34.3954 194.669 33.8698 194.624C31.0688 194.392 28.2731 195.13 25.9535 196.712C23.7213 198.226 21.9833 200.332 20.5124 202.565C19.6113 203.932 18.8042 205.358 17.9972 206.782C17.7393 207.237 16.9851 206.908 17.246 206.448Z" fill="#F2F2F2"/>
<path d="M240.214 145.775H86.5861C86.1128 145.775 85.6589 145.587 85.3242 145.253C84.9895 144.92 84.8012 144.467 84.8005 143.995V1.77991C84.8012 1.30804 84.9895 0.85567 85.3242 0.522006C85.659 0.188341 86.1128 0.000616856 86.5861 0H240.214C240.688 0.000616856 241.141 0.188341 241.476 0.522006C241.811 0.85567 241.999 1.30804 242 1.77991V143.995C241.999 144.467 241.811 144.919 241.476 145.253C241.142 145.587 240.688 145.774 240.214 145.775V145.775Z" fill="white"/>
<path d="M240.214 145.775H86.5861C86.1128 145.775 85.6589 145.587 85.3242 145.253C84.9895 144.92 84.8012 144.467 84.8005 143.995V1.77991C84.8012 1.30804 84.9895 0.85567 85.3242 0.522006C85.659 0.188341 86.1128 0.000616856 86.5861 0H240.214C240.688 0.000616856 241.141 0.188341 241.476 0.522006C241.811 0.85567 241.999 1.30804 242 1.77991V143.995C241.999 144.467 241.811 144.919 241.476 145.253C241.142 145.587 240.688 145.774 240.214 145.775V145.775ZM86.5861 0.710563C86.3024 0.711177 86.0305 0.823794 85.8299 1.02376C85.6293 1.22374 85.5163 1.49478 85.5157 1.77758V143.995C85.5163 144.278 85.6293 144.549 85.8299 144.749C86.0305 144.949 86.3024 145.061 86.5861 145.062H240.214C240.498 145.061 240.77 144.949 240.971 144.749C241.171 144.549 241.284 144.278 241.285 143.995V1.77991C241.284 1.49711 241.171 1.22607 240.971 1.0261C240.77 0.82613 240.498 0.713513 240.214 0.712899L86.5861 0.710563Z" fill="#CACACA"/>
<path d="M159.178 36.9551C158.857 36.9557 158.549 37.0832 158.323 37.3098C158.096 37.5363 157.968 37.8434 157.968 38.1635C157.968 38.4836 158.096 38.7907 158.323 39.0172C158.549 39.2438 158.857 39.3714 159.178 39.3719H225.697C226.018 39.3714 226.326 39.2438 226.553 39.0172C226.78 38.7907 226.907 38.4836 226.907 38.1635C226.907 37.8434 226.78 37.5363 226.553 37.3098C226.326 37.0832 226.018 36.9557 225.697 36.9551H159.178Z" fill="#E4E4E4"/>
<path d="M159.178 44.2061C158.857 44.2069 158.55 44.3346 158.323 44.5611C158.096 44.7876 157.969 45.0946 157.969 45.4145C157.969 45.7345 158.096 46.0414 158.323 46.268C158.55 46.4945 158.857 46.6222 159.178 46.6229H193.138C193.459 46.6222 193.766 46.4945 193.993 46.268C194.22 46.0414 194.347 45.7345 194.347 45.4145C194.347 45.0946 194.22 44.7876 193.993 44.5611C193.766 44.3346 193.459 44.2069 193.138 44.2061H159.178Z" fill="#E4E4E4"/>
<path d="M101.039 83.1996C100.718 83.2004 100.41 83.328 100.184 83.5546C99.9569 83.7811 99.8296 84.088 99.8296 84.408C99.8296 84.728 99.9569 85.0349 100.184 85.2614C100.41 85.488 100.718 85.6156 101.039 85.6164H225.762C226.083 85.6156 226.391 85.488 226.617 85.2614C226.844 85.0349 226.971 84.728 226.971 84.408C226.971 84.088 226.844 83.7811 226.617 83.5546C226.391 83.328 226.083 83.2004 225.762 83.1996H101.039Z" fill="#E4E4E4"/>
<path d="M101.039 90.4506C100.718 90.4514 100.41 90.579 100.184 90.8056C99.9569 91.0321 99.8296 91.339 99.8296 91.659C99.8296 91.979 99.9569 92.2859 100.184 92.5124C100.41 92.739 100.718 92.8666 101.039 92.8674H193.202C193.523 92.8666 193.831 92.739 194.058 92.5124C194.284 92.2859 194.412 91.979 194.412 91.659C194.412 91.339 194.284 91.0321 194.058 90.8056C193.831 90.579 193.523 90.4514 193.202 90.4506H101.039Z" fill="#E4E4E4"/>
<path d="M101.039 97.5376C100.718 97.5383 100.41 97.666 100.184 97.8925C99.9569 98.1191 99.8296 98.426 99.8296 98.746C99.8296 99.0659 99.9569 99.3729 100.184 99.5994C100.41 99.8259 100.718 99.9536 101.039 99.9543H225.762C226.083 99.9536 226.391 99.8259 226.617 99.5994C226.844 99.3729 226.971 99.0659 226.971 98.746C226.971 98.426 226.844 98.1191 226.617 97.8925C226.391 97.666 226.083 97.5383 225.762 97.5376H101.039Z" fill="#E4E4E4"/>
<path d="M101.039 104.789C100.718 104.789 100.41 104.917 100.184 105.144C99.9569 105.37 99.8296 105.677 99.8296 105.997C99.8296 106.317 99.9569 106.624 100.184 106.85C100.41 107.077 100.718 107.205 101.039 107.205H193.202C193.523 107.205 193.831 107.077 194.058 106.85C194.284 106.624 194.412 106.317 194.412 105.997C194.412 105.677 194.284 105.37 194.058 105.144C193.831 104.917 193.523 104.789 193.202 104.789H101.039Z" fill="#E4E4E4"/>
<path d="M101.039 112.064C100.718 112.065 100.41 112.193 100.184 112.419C99.9569 112.646 99.8296 112.953 99.8296 113.273C99.8296 113.593 99.9569 113.9 100.184 114.126C100.41 114.353 100.718 114.48 101.039 114.481H225.762C226.083 114.48 226.391 114.353 226.617 114.126C226.844 113.9 226.971 113.593 226.971 113.273C226.971 112.953 226.844 112.646 226.617 112.419C226.391 112.193 226.083 112.065 225.762 112.064H101.039Z" fill="#E4E4E4"/>
<path d="M101.039 119.315C100.718 119.316 100.41 119.444 100.184 119.67C99.9569 119.897 99.8296 120.204 99.8296 120.524C99.8296 120.844 99.9569 121.151 100.184 121.377C100.41 121.604 100.718 121.731 101.039 121.732H193.202C193.523 121.731 193.831 121.604 194.058 121.377C194.284 121.151 194.412 120.844 194.412 120.524C194.412 120.204 194.284 119.897 194.058 119.67C193.831 119.444 193.523 119.316 193.202 119.315H101.039Z" fill="#E4E4E4"/>
<path d="M120.794 59.1502C117.349 59.1502 113.982 58.132 111.117 56.2244C108.253 54.3167 106.021 51.6053 104.703 48.4329C103.384 45.2606 103.039 41.7698 103.711 38.402C104.383 35.0343 106.042 31.9408 108.478 29.5127C110.914 27.0847 114.017 25.4312 117.396 24.7613C120.774 24.0914 124.276 24.4352 127.459 25.7492C130.641 27.0633 133.361 29.2885 135.275 32.1435C137.189 34.9986 138.21 38.3552 138.21 41.7889C138.205 46.3918 136.368 50.8046 133.103 54.0594C129.838 57.3141 125.411 59.1449 120.794 59.1502Z" fill="#6C63FF"/>
<path d="M67.9245 124.794C67.8944 124.161 67.7253 123.541 67.429 122.98C67.1328 122.418 66.7167 121.928 66.2099 121.544C65.7032 121.161 65.1182 120.892 64.4961 120.758C63.8741 120.624 63.2301 120.628 62.6096 120.768L56.8527 112.681L51.0691 114.97L59.3599 126.277C59.6664 127.3 60.3388 128.176 61.2498 128.738C62.1608 129.301 63.2471 129.51 64.3028 129.328C65.3585 129.145 66.3103 128.582 66.9778 127.747C67.6453 126.911 67.9822 125.861 67.9245 124.794H67.9245Z" fill="#A0616A"/>
<path d="M56.7044 124.195L39.2849 101.669L45.8118 81.2209C46.2901 76.0801 49.5174 74.6446 49.6547 74.5859L49.8641 74.4963L55.5438 89.5942L51.3736 100.679L61.6092 117.839L56.7044 124.195Z" fill="#3F3D56"/>
<path d="M117.2 54.7538C116.568 54.8328 115.962 55.0488 115.423 55.3866C114.884 55.7244 114.426 56.1759 114.082 56.7091C113.737 57.2424 113.514 57.8445 113.428 58.4731C113.342 59.1017 113.395 59.7414 113.584 60.3473L105.94 66.6939L108.676 72.2648L119.345 63.151C120.345 62.7673 121.169 62.0313 121.66 61.0824C122.152 60.1335 122.278 59.0378 122.014 58.0027C121.749 56.9676 121.113 56.0652 120.226 55.4664C119.339 54.8677 118.262 54.6141 117.2 54.7538Z" fill="#A0616A"/>
<path d="M117.468 65.951L96.2838 85.0046L75.3275 80.0989C70.1487 80.021 68.4634 76.9248 68.3941 76.7928L68.2883 76.5915L82.95 69.7796L94.3596 73.067L110.732 61.5678L117.468 65.951Z" fill="#3F3D56"/>
<path d="M80.774 201.404L86.4657 201.403L89.1732 179.52L80.7729 179.52L80.774 201.404Z" fill="#A0616A"/>
<path d="M97.4426 206.671L79.5545 206.672L79.5542 199.783L92.4237 199.782C93.7548 199.782 95.0313 200.309 95.9725 201.247C96.9137 202.185 97.4425 203.458 97.4425 204.784L97.4426 206.671L97.4426 206.671Z" fill="#2F2E41"/>
<path d="M58.0251 201.404L63.7168 201.403L66.4246 179.52L58.0244 179.52L58.0251 201.404Z" fill="#A0616A"/>
<path d="M74.6941 206.671L56.806 206.672L56.8057 199.783L69.6752 199.782C70.3343 199.782 70.9869 199.911 71.5958 200.163C72.2047 200.414 72.7579 200.783 73.2239 201.247C73.69 201.712 74.0597 202.263 74.3119 202.87C74.5641 203.477 74.694 204.127 74.694 204.784L74.6941 206.671Z" fill="#2F2E41"/>
<path d="M56.001 121.526L56.4652 153.92L56.9297 196.495L67.1431 195.57L72.2501 136.797L78.7497 195.57H89.294L90.3561 136.335L86.642 123.377L56.001 121.526Z" fill="#2F2E41"/>
<path d="M75.9917 125.876C64.8787 125.877 54.6492 120.863 54.5111 120.794L54.3964 120.737L53.4638 98.4272C53.1934 97.6389 47.8682 82.0825 46.9663 77.138C46.0525 72.1285 59.2961 67.732 60.9043 67.2178L61.2693 63.1879L76.1104 61.5937L77.9914 66.7502L83.3157 68.7403C83.9193 68.9661 84.4189 69.4048 84.7197 69.9732C85.0205 70.5416 85.1018 71.2003 84.948 71.8244L81.9888 83.82L89.2161 123.507L87.6601 123.574C83.9305 125.254 79.9052 125.876 75.9917 125.876Z" fill="#3F3D56"/>
<path d="M74.3961 57.736C79.5744 54.9143 81.4775 48.4424 78.6468 43.2806C75.8161 38.1188 69.3235 36.2218 64.1452 39.0435C58.9669 41.8652 57.0638 48.3371 59.8945 53.4989C62.7253 58.6607 69.2178 60.5577 74.3961 57.736Z" fill="#A0616A"/>
<path d="M60.616 58.7014C62.6524 60.8637 66.4343 59.7029 66.6997 56.7489C66.7205 56.5195 66.719 56.2887 66.6952 56.0596C66.5582 54.7511 65.7998 53.5632 65.9814 52.1816C66.0225 51.8377 66.1511 51.51 66.3548 51.2295C67.9776 49.0634 71.7869 52.1984 73.3184 50.2374C74.2575 49.0351 73.1536 47.142 73.8743 45.7981C74.8254 44.0244 77.6426 44.8994 79.4093 43.928C81.375 42.8472 81.2574 39.841 79.9635 38.0124C78.3855 35.7823 75.6187 34.5924 72.8864 34.4209C70.1542 34.2494 67.4407 34.9857 64.8899 35.9766C61.9916 37.1025 59.1176 38.6585 57.334 41.1988C55.1651 44.2881 54.9563 48.4414 56.0411 52.0537C56.701 54.2512 58.953 56.9356 60.616 58.7014Z" fill="#2F2E41"/>
<path d="M135.78 206.946H0.355444C0.261174 206.946 0.17076 206.908 0.104101 206.842C0.0374428 206.775 0 206.685 0 206.591C0 206.497 0.0374428 206.407 0.104101 206.341C0.17076 206.274 0.261174 206.237 0.355444 206.237H135.78C135.874 206.237 135.964 206.274 136.031 206.341C136.098 206.407 136.135 206.497 136.135 206.591C136.135 206.685 136.098 206.775 136.031 206.842C135.964 206.908 135.874 206.946 135.78 206.946Z" fill="#CACACA"/>
<path d="M119.788 48.3463C119.474 48.3467 119.171 48.2282 118.941 48.0148L113.198 42.6976C112.957 42.4736 112.815 42.1634 112.803 41.8349C112.791 41.5065 112.91 41.1867 113.135 40.9459C113.359 40.7051 113.67 40.5629 113.999 40.5506C114.329 40.5383 114.65 40.6569 114.892 40.8803L119.756 45.3843L129.38 35.7909C129.496 35.675 129.633 35.583 129.784 35.5201C129.935 35.4572 130.097 35.4247 130.261 35.4244C130.425 35.4241 130.587 35.456 130.738 35.5183C130.89 35.5807 131.027 35.6722 131.143 35.7877C131.259 35.9031 131.351 36.0402 131.413 36.1911C131.476 36.342 131.508 36.5037 131.507 36.667C131.507 36.8303 131.474 36.9918 131.411 37.1425C131.348 37.2931 131.256 37.4298 131.14 37.5448L120.668 47.9832C120.552 48.0985 120.415 48.1899 120.264 48.2522C120.113 48.3145 119.951 48.3465 119.788 48.3463Z" fill="white"/>
</g>
<defs>
<clipPath id="clip0_6_112">
<rect width="242" height="207" fill="white"/>
</clipPath>
</defs>
</svg>
