<svg width="260" height="222" viewBox="0 0 260 222" fill="none" xmlns="http://www.w3.org/2000/svg">
<g clip-path="url(#clip0_2_9)">
<path d="M203.107 35.7946H185.442V185.949C185.442 188.305 184.976 190.638 184.072 192.814C183.168 194.991 181.842 196.968 180.171 198.634C178.5 200.3 176.517 201.622 174.333 202.523C172.15 203.425 169.81 203.889 167.447 203.889H32.3852V204.06C32.3852 206.416 32.8506 208.749 33.7549 210.926C34.6592 213.102 35.9847 215.08 37.6556 216.746C39.3265 218.411 41.3102 219.733 43.4933 220.634C45.6765 221.536 48.0164 222 50.3794 222H203.107C205.47 222 207.81 221.536 209.993 220.634C212.177 219.733 214.16 218.411 215.831 216.746C217.502 215.08 218.828 213.102 219.732 210.926C220.636 208.749 221.102 206.416 221.102 204.06V53.7343C221.102 51.3785 220.636 49.0456 219.732 46.8691C218.828 44.6926 217.502 42.7149 215.831 41.049C214.16 39.3832 212.177 38.0618 209.993 37.1602C207.81 36.2586 205.47 35.7946 203.107 35.7946Z" fill="#F2F2F2"/>
<path d="M181.247 20.3913H7.46892C3.34395 20.3913 0 23.7251 0 27.8376V199.15C0 203.263 3.34395 206.597 7.46892 206.597H181.247C185.372 206.597 188.716 203.263 188.716 199.15V27.8376C188.716 23.7251 185.372 20.3913 181.247 20.3913Z" fill="#F2F2F2"/>
<path d="M17.9943 24.0806C14.2034 24.0806 10.5678 25.582 7.88717 28.2544C5.20658 30.9269 3.70064 34.5515 3.70064 38.331V188.657C3.70064 192.437 5.20658 196.061 7.88717 198.734C10.5678 201.406 14.2034 202.908 17.9943 202.908H115.469C153.879 202.908 185.016 171.865 185.016 133.572V38.331C185.016 34.5515 183.51 30.9269 180.829 28.2544C178.149 25.582 174.513 24.0806 170.722 24.0806H17.9943Z" fill="white"/>
<path d="M192.846 124.965C192.065 125.181 191.247 125.225 190.448 125.094C189.648 124.963 188.887 124.661 188.216 124.208C187.545 123.755 186.981 123.162 186.563 122.471C186.144 121.779 185.882 121.005 185.793 120.202L159.104 112.167L159.519 104.261L191.147 114.036C192.514 113.987 193.851 114.44 194.905 115.309C195.959 116.177 196.656 117.401 196.866 118.748C197.075 120.095 196.782 121.472 196.041 122.618C195.3 123.764 194.163 124.599 192.846 124.965V124.965Z" fill="#FFB6B6"/>
<path d="M102.99 84.1817C100.288 81.9333 104.245 70.7896 103.178 67.5597C103.114 67.3641 103.054 67.168 102.996 66.9713C102.875 66.5545 102.903 66.1089 103.073 65.7096L113.104 61.0056C115.717 62.0703 118.126 63.5797 120.221 65.4666L135.717 83.1115L151.112 96.9733L157.867 99.9755L180.251 109.929L180.019 110.596L180.017 110.598L177.557 117.722L177.557 117.726L182.479 121.147L166.365 118.727L155.708 114.344L145.446 110.125C130.295 101.034 105.367 96.3223 102.99 84.1817Z" fill="#6C63FF"/>
<path d="M174.409 165.953C174.114 166.087 173.784 166.128 173.464 166.068C173.145 166.009 172.851 165.854 172.623 165.623C172.395 165.392 172.244 165.097 172.19 164.777C172.136 164.458 172.182 164.13 172.321 163.837C172.299 163.675 172.284 163.559 172.262 163.397C172.236 163.371 172.209 163.344 172.183 163.317C169.535 160.639 164.954 162.495 164.907 166.256C164.866 169.594 164.5 173.067 165.343 176.242C165.716 177.645 166.331 178.973 167.159 180.167C161.913 175.198 157.799 169.162 155.098 162.469C154.422 160.788 153.84 159.072 153.357 157.327C152.961 155.896 152.63 154.45 152.362 152.991C150.919 145.069 151.381 136.918 153.711 129.208C155.48 127.072 156.549 124.447 156.776 121.686C156.86 120.692 156.8 119.691 156.597 118.715C156.355 118.85 154.088 115.255 154.185 114.94C153.613 114.544 152.868 114.531 152.269 114.161C149.285 112.32 146.805 113.84 146.842 117.947C144.472 120.628 145.44 123.119 148.221 124.774C149.99 125.828 150.974 127.816 152.644 129.033C152.593 129.209 152.537 129.382 152.486 129.557C151.558 132.775 150.949 136.075 150.668 139.411C149.825 136.172 147.749 132.695 145.792 130.701C143.564 128.428 140.517 126.981 137.699 125.372C134.315 123.44 130.204 126.516 131.25 130.261C131.261 130.298 131.271 130.334 131.281 130.37C131.622 130.415 131.96 130.473 132.297 130.542C132.721 130.631 133.108 130.846 133.407 131.158C133.706 131.47 133.904 131.865 133.974 132.291C134.045 132.717 133.984 133.154 133.801 133.545C133.618 133.937 133.321 134.264 132.948 134.483L132.91 134.506C133.41 135.465 133.982 136.384 134.623 137.256C135.942 147.467 142.477 148.767 149.935 145.962C150.132 145.981 150.325 146.001 150.52 146.015C150.71 150.544 151.491 155.03 152.842 159.359C153.647 161.909 154.658 164.391 155.864 166.779L155.816 166.697C154.175 164.161 151.706 162.268 148.826 161.336C144.565 159.992 139.647 160.834 135.34 160.106C133.267 159.755 131.661 161.92 132.725 163.729C132.742 163.758 132.759 163.786 132.776 163.815C133.376 163.819 133.975 163.859 134.57 163.937C134.91 163.982 135.249 164.039 135.586 164.108C136.009 164.197 136.396 164.412 136.696 164.724C136.995 165.036 137.193 165.431 137.263 165.857C137.334 166.283 137.273 166.721 137.09 167.112C136.907 167.503 136.609 167.83 136.236 168.05L136.198 168.072C136.171 168.088 136.147 168.103 136.12 168.118C137.843 169.863 139.856 171.3 142.068 172.364C146.815 179.841 153.568 178.032 159.516 172.926L159.52 172.925C161.593 175.899 163.971 178.651 166.615 181.135L178.296 176.468C178.286 176.322 178.27 176.173 178.256 176.029C177.202 176.528 176.091 176.898 174.947 177.128C175.387 175.722 175.824 174.307 176.265 172.9C176.276 172.873 176.286 172.845 176.294 172.816C176.515 172.098 176.743 171.382 176.964 170.664L176.964 170.663C176.319 168.99 175.461 167.407 174.41 165.953L174.409 165.953Z" fill="#F2F2F2"/>
<path d="M110.204 176.202L110.07 176.035C109.685 173.562 110.204 176.202 110.204 176.202Z" fill="#2F2E41"/>
<path d="M117.047 202.872H79.6245C76.7171 195.667 74.699 190.513 74.699 190.513C74.699 190.513 74.2089 195.561 73.5096 202.872H39.6776C39.361 183.004 38.9177 162.603 38.7718 156.124L103.71 157.567L110.169 165.733C110.191 165.869 110.213 166.02 110.241 166.19C110.502 167.849 114.018 185.66 117.047 202.872Z" fill="#2F2E41"/>
<path d="M116.479 63.1313L116.473 63.1197C116.267 62.7377 115.935 62.4383 115.533 62.2719C111.424 59.0937 106.925 57.6449 101.877 58.6357C101.05 56.141 100.279 56.141 100.279 56.141L89.3288 52.5354L87.7537 42.9436L60.773 42.0331L58.321 54.0027C58.321 54.0027 43.2402 56.6979 43.2402 58.6469C43.2402 60.5959 45.7536 60.5959 43.2402 60.5959C40.7267 60.5959 40.0537 58.3685 37.8781 60.5959C37.6917 60.783 37.495 60.9596 37.2889 61.1249C37.2637 61.1472 37.2358 61.1667 37.2107 61.1889C34.752 63.117 32.8198 65.6311 31.5923 68.4996C30.3648 71.3681 29.8815 74.4985 30.1869 77.6022L34.8257 123.607L39.7772 172.696L107.54 175.508L112.078 133.736L116.695 64.234C116.736 63.8532 116.661 63.4689 116.479 63.1313Z" fill="#6C63FF"/>
<path d="M5.24153 186.5C5.62841 187.47 6.01884 188.181 6.41275 188.533L137.833 188.811C138.227 188.459 138.618 187.748 139.005 186.778C143.601 175.249 134.93 162.748 122.486 162.724L21.7667 162.534C9.33977 162.51 0.65119 174.986 5.24153 186.5Z" fill="white"/>
<path d="M137.94 189.09L137.833 189.089L6.30575 188.811L6.22651 188.74C5.81688 188.374 5.40983 187.675 4.98205 186.602C3.89409 183.92 3.4928 181.01 3.81437 178.135C4.13594 175.26 5.17026 172.51 6.82406 170.132C8.47527 167.706 10.6973 165.719 13.2961 164.346C15.8949 162.973 18.7914 162.255 21.7326 162.255H21.7673L122.487 162.446C125.439 162.452 128.344 163.177 130.95 164.56C133.555 165.943 135.782 167.941 137.434 170.379C139.086 172.764 140.118 175.52 140.437 178.4C140.757 181.28 140.354 184.194 139.264 186.881C138.836 187.954 138.429 188.653 138.02 189.018L137.94 189.09ZM15.1934 188.228L126.627 187.891C134.493 187.868 140.279 180.298 137.948 172.808C137.728 172.059 137.399 171.346 136.972 170.692C135.37 168.329 133.213 166.392 130.687 165.052C128.162 163.712 125.346 163.008 122.486 163.003L21.7662 162.812H21.7326C20.4537 162.855 19.1925 163.123 18.0079 163.606C11.5021 166.06 7.15163 172.23 6.78989 179.155C6.78529 179.244 6.7807 179.332 6.77612 179.42C6.71932 180.519 6.88012 181.618 7.24934 182.654C7.61855 183.691 8.18896 184.645 8.92798 185.462C9.667 186.279 10.5602 186.942 11.5565 187.415C12.5528 187.888 13.6328 188.16 14.7347 188.217C14.8875 188.225 15.0404 188.229 15.1934 188.228L15.1934 188.228Z" fill="#E6E6E6"/>
<path d="M163.392 88.1111C161.953 82.0843 162.193 76.1483 164.658 70.3325C164.684 69.9727 164.852 69.6379 165.125 69.4015C165.398 69.1651 165.755 69.0464 166.116 69.0716L179.583 70.0243C179.944 70.0502 180.28 70.2178 180.517 70.4903C180.754 70.7628 180.873 71.118 180.848 71.4778L179.583 89.2565C179.557 89.6163 179.389 89.9511 179.115 90.1875C178.842 90.4239 178.486 90.5425 178.125 90.5174L164.657 89.5647C164.296 89.5387 163.96 89.3711 163.723 89.0986C163.486 88.8261 163.367 88.471 163.392 88.1111Z" fill="#F2F2F2"/>
<path d="M164.808 82.8143C163.656 79.8444 164.392 75.7598 165.621 71.3846C165.645 71.0476 165.803 70.734 166.059 70.5126C166.315 70.2912 166.648 70.1801 166.986 70.2037L178.561 71.0224C178.899 71.0467 179.213 71.2037 179.435 71.4589C179.657 71.7141 179.769 72.0467 179.745 72.3837L178.619 88.2043C178.595 88.5413 178.438 88.8549 178.182 89.0763C177.926 89.2976 177.592 89.4088 177.254 89.3852L170.084 88.878C168.578 88.7698 167.177 88.0706 166.188 86.9338C165.199 85.7971 164.702 84.3156 164.808 82.8143Z" fill="white"/>
<path d="M172.821 83.5894C172.467 83.5289 172.114 83.4683 171.76 83.4077C171.923 83.0245 172.017 82.6156 172.038 82.1999C172.205 79.9748 172.222 77.7285 172.311 75.4988C172.309 75.4173 172.283 75.3382 172.237 75.271C172.19 75.2038 172.125 75.1515 172.05 75.1202C171.974 75.089 171.891 75.0803 171.811 75.0951C171.73 75.1098 171.656 75.1475 171.596 75.2035C170.708 75.9367 169.82 76.6699 168.933 77.4031C168.517 77.7463 169.113 78.3343 169.525 77.9937C170.162 77.4675 170.8 76.9412 171.437 76.415C171.378 77.8759 171.32 79.3368 171.261 80.7978C171.233 81.499 171.319 82.3504 171.031 83.0096C170.991 83.0985 170.94 83.1816 170.878 83.2567C170.487 83.1896 170.095 83.1225 169.704 83.0555C169.422 83.0073 169.065 83.2416 169.189 83.5693C169.458 84.2818 170.252 84.5069 170.933 84.2323C170.993 84.2054 171.051 84.1744 171.107 84.1395L172.598 84.3949C173.125 84.4852 173.352 83.6804 172.821 83.5894Z" fill="#6C63FF"/>
<path d="M241.589 147.973C240.15 141.946 240.39 136.01 242.854 130.194C242.88 129.835 243.048 129.5 243.322 129.263C243.595 129.027 243.951 128.908 244.312 128.933L257.78 129.886C258.141 129.912 258.477 130.08 258.714 130.352C258.951 130.625 259.07 130.98 259.045 131.34L257.779 149.118C257.753 149.478 257.585 149.813 257.312 150.049C257.039 150.286 256.682 150.404 256.321 150.379L242.854 149.427C242.493 149.401 242.157 149.233 241.92 148.961C241.683 148.688 241.564 148.333 241.589 147.973Z" fill="#F2F2F2"/>
<path d="M243.004 142.676C241.852 139.706 242.589 135.622 243.818 131.247C243.842 130.91 244 130.596 244.256 130.375C244.511 130.153 244.845 130.042 245.183 130.066L256.757 130.884C257.095 130.909 257.41 131.066 257.632 131.321C257.854 131.576 257.966 131.909 257.942 132.246L256.816 148.066C256.792 148.403 256.634 148.717 256.378 148.938C256.122 149.16 255.789 149.271 255.451 149.247L248.281 148.74C246.775 148.632 245.374 147.933 244.385 146.796C243.396 145.659 242.899 144.177 243.004 142.676Z" fill="white"/>
<path d="M250.56 139.66C250.714 139.588 250.859 139.5 250.994 139.397C251.353 139.102 251.618 138.71 251.758 138.267C251.898 137.825 251.905 137.352 251.78 136.905C251.237 134.916 248.851 134.904 247.203 135.143C246.672 135.22 246.898 136.025 247.426 135.948C248.536 135.787 250.28 135.657 250.876 136.866C251.012 137.15 251.061 137.468 251.015 137.779C250.97 138.091 250.833 138.382 250.621 138.616C250.368 138.869 250.035 139.027 249.678 139.063C249.333 138.913 248.958 138.843 248.581 138.859C248.193 138.877 247.977 139.44 248.37 139.637C248.718 139.81 249.101 139.9 249.49 139.9C249.812 140.055 250.081 140.302 250.263 140.609C250.445 140.916 250.532 141.27 250.514 141.626C250.477 141.869 250.392 142.102 250.265 142.313C250.137 142.523 249.969 142.706 249.771 142.852C249.572 142.998 249.347 143.103 249.108 143.162C248.868 143.221 248.62 143.233 248.376 143.196L248.365 143.194C247.839 143.089 247.614 143.894 248.143 144C248.852 144.133 249.586 143.98 250.182 143.574C250.779 143.168 251.189 142.542 251.323 141.835C251.33 141.796 251.336 141.758 251.342 141.719C251.375 141.339 251.322 140.957 251.187 140.601C251.051 140.244 250.837 139.922 250.56 139.66Z" fill="#6C63FF"/>
<path d="M226.508 52.7508C225.069 46.724 225.309 40.788 227.774 34.9722C227.8 34.6124 227.968 34.2776 228.241 34.0412C228.514 33.8048 228.871 33.6861 229.232 33.7113L242.699 34.664C243.06 34.6899 243.396 34.8575 243.633 35.13C243.87 35.4025 243.989 35.7577 243.964 36.1175L242.699 53.8962C242.673 54.256 242.504 54.5908 242.231 54.8272C241.958 55.0636 241.602 55.1822 241.241 55.1571L227.773 54.2044C227.412 54.1784 227.076 54.0108 226.839 53.7383C226.602 53.4658 226.483 53.1107 226.508 52.7508Z" fill="#F2F2F2"/>
<path d="M227.923 47.454C226.772 44.4841 227.508 40.3995 228.737 36.0243C228.761 35.6873 228.919 35.3737 229.175 35.1524C229.431 34.931 229.764 34.8199 230.102 34.8434L241.677 35.6622C242.015 35.6865 242.329 35.8434 242.551 36.0986C242.773 36.3538 242.885 36.6864 242.861 37.0235L241.735 52.844C241.711 53.181 241.553 53.4946 241.297 53.716C241.041 53.9374 240.708 54.0485 240.37 54.0249L233.2 53.5177C231.694 53.4095 230.293 52.7103 229.304 51.5736C228.315 50.4368 227.818 48.9553 227.923 47.454Z" fill="white"/>
<path d="M235.041 39.4926C233.855 39.0821 232.535 40.0176 232.401 41.2304C232.248 42.6051 233.731 43.6903 235.015 43.3167C235.532 43.1664 235.312 42.3601 234.792 42.5112C233.851 42.7851 232.847 41.7719 233.388 40.8661C233.511 40.6474 233.698 40.4713 233.924 40.3611C234.15 40.251 234.404 40.212 234.653 40.2494C234.864 40.3077 235.058 40.4145 235.22 40.5612C235.382 40.7079 235.508 40.8905 235.586 41.0943C236.048 42.1318 235.499 43.1852 234.772 43.9393C234.357 44.3694 233.87 44.7036 233.423 45.0956C233.206 45.2594 233.025 45.4667 232.893 45.7043C232.761 45.9419 232.681 46.2044 232.656 46.475C232.668 46.7792 232.763 47.0745 232.931 47.3288C233.099 47.5832 233.334 47.7868 233.609 47.9179C234.324 48.2841 235.136 48.1677 235.896 48.0458C236.427 47.9606 236.202 47.1556 235.673 47.2403C235.009 47.3469 234.014 47.5085 233.593 46.8176C233.232 46.226 233.975 45.7064 234.38 45.3917C235.397 44.6007 236.426 43.5792 236.579 42.2343C236.704 41.1326 236.142 39.8737 235.041 39.4926Z" fill="#6C63FF"/>
<path d="M30.6631 120.874L37.2987 123.853C34.1792 126.375 29.4288 129.77 24.7761 131.34L17.3837 126.314C14.63 115.728 16.3169 104.82 19.6262 95.5953C21.4598 90.4696 23.8913 85.5766 26.8706 81.0169C26.5655 77.9132 27.0489 74.7828 28.2764 71.9144C29.5039 69.046 31.4359 66.5318 33.8943 64.6036C33.9223 64.5813 33.9474 64.5618 33.9725 64.5395C36.4212 66.658 38.4215 69.2422 39.8563 72.1408C41.291 75.0394 42.1315 78.1942 42.3284 81.4206L42.4764 83.8596L42.7725 88.6653L43.5237 100.938L34.6149 114.748L30.6631 120.874Z" fill="#6C63FF"/>
<path d="M49.7533 173.269C49.8308 173.366 49.9294 173.444 50.0416 173.498C50.1538 173.551 50.2768 173.579 50.4012 173.578H95.7385C95.8625 173.578 95.9849 173.55 96.0968 173.497C96.2087 173.444 96.3073 173.366 96.3854 173.27C96.4635 173.174 96.5191 173.062 96.5483 172.942C96.5775 172.822 96.5794 172.697 96.554 172.576L95.8502 169.243C95.821 169.107 95.7582 168.981 95.6675 168.875C95.5768 168.77 95.461 168.688 95.3307 168.639C95.2364 168.602 95.136 168.583 95.0347 168.583H51.1022C51.0008 168.583 50.9004 168.602 50.8061 168.639C50.6759 168.688 50.5601 168.77 50.4694 168.875C50.3786 168.981 50.3158 169.107 50.2867 169.243L49.5829 172.576C49.5579 172.697 49.5601 172.822 49.5896 172.942C49.6191 173.062 49.675 173.173 49.7533 173.269Z" fill="#2F2E41"/>
<path d="M32.3964 98.6617V150.8C32.3969 151.464 32.6619 152.102 33.1331 152.571C33.6044 153.041 34.2434 153.305 34.9098 153.306H112.408C113.075 153.305 113.714 153.041 114.185 152.571C114.656 152.102 114.921 151.464 114.922 150.8V98.6617C114.92 97.9979 114.655 97.3617 114.184 96.8926C113.713 96.4234 113.074 96.1595 112.408 96.1587H34.9098C34.244 96.1595 33.6056 96.4234 33.1345 96.8926C32.6634 97.3617 32.398 97.9979 32.3964 98.6617Z" fill="#3F3D56"/>
<path d="M63.9627 143.076V171.632H84.0285V143.076C84.0289 142.871 83.9631 142.671 83.841 142.506C83.7188 142.34 83.5467 142.218 83.3499 142.158C83.2571 142.127 83.1599 142.112 83.0623 142.113H64.9318C64.6753 142.113 64.4291 142.214 64.2473 142.394C64.0656 142.575 63.9632 142.82 63.9627 143.075V143.076ZM71.7936 152.888C71.7989 152.325 72.0269 151.787 72.428 151.391C72.8292 150.995 73.3709 150.773 73.9356 150.773C74.5002 150.773 75.042 150.995 75.4431 151.391C75.8443 151.787 76.0723 152.325 76.0776 152.888V156.202C76.0747 156.766 75.8478 157.306 75.4464 157.705C75.045 158.103 74.5018 158.326 73.9356 158.326C73.3694 158.326 72.8262 158.103 72.4248 157.705C72.0234 157.306 71.7964 156.766 71.7936 156.202V152.888Z" fill="#2F2E41"/>
<path d="M75.6736 40.9641C85.3176 40.9641 93.1356 33.1698 93.1356 23.555C93.1356 13.9402 85.3176 6.14585 75.6736 6.14585C66.0296 6.14585 58.2115 13.9402 58.2115 23.555C58.2115 33.1698 66.0296 40.9641 75.6736 40.9641Z" fill="#FFB6B6"/>
<path d="M96.5815 20.5094C94.6989 21.0921 92.8839 21.4356 91.6596 19.896C90.4353 18.3565 90.7553 16.5961 88.9342 15.8539C87.4638 15.2529 85.7657 15.5105 84.283 16.0686C84.0185 16.1668 83.76 16.2772 83.5078 16.3876C83.3663 16.2649 83.2248 16.1484 83.071 16.0379C81.9135 15.2173 80.4845 14.8705 79.0782 15.0689C80.1061 15.5639 80.9519 16.3685 81.496 17.369C80.9915 17.6204 80.4495 17.8084 79.9641 18.0866C73.2954 21.909 65.8791 23.4485 66.4844 17.0684C68.5023 22.3679 66.9335 24.2571 63.9743 29.0965L63.8574 29.3787C64.1527 28.109 62.0764 28.0489 60.2829 28.4832C58.9582 28.804 59.8155 31.8827 61.5133 34.0035C57.7174 28.3053 52.0319 19.6053 56.9483 15.2406C57.6734 14.5968 58.1284 13.6886 58.2587 11.3641C58.336 9.98588 60.6889 9.64054 61.9317 10.2539C62.1115 8.1816 62.838 6.1936 64.0374 4.49159C65.2367 2.78957 66.8663 1.43412 68.7607 0.56273C72.5629 -1.12403 76.4296 1.47071 80.5609 1.97346C82.8531 2.25241 84.5914 3.1728 84.6829 6.08916C84.7438 8.03127 87.6791 8.72663 89.5986 9.07011C90.8167 9.28481 92.1887 9.15599 93.1608 9.9227C94.2866 10.8121 94.2989 12.3762 94.2928 13.8789C93.1912 13.8476 92.1052 14.1444 91.1736 14.7315C92.3139 14.76 93.4162 15.1464 94.3236 15.8356C94.3411 15.8463 94.3575 15.8586 94.3728 15.8724C94.705 18.3995 94.5696 18.9331 96.5815 20.5094Z" fill="#2F2E41"/>
<path d="M109.175 105.396C115.999 103.282 123.303 105.568 130.164 103.617C131.742 103.187 133.233 102.488 134.573 101.552C135.716 100.688 136.789 99.7363 137.783 98.7049C139.846 96.6698 142.088 94.533 145.188 94.5565C149.271 94.5876 152.407 97.6114 155.128 100.281C155.513 100.659 156.106 100.069 155.721 99.6908C153.22 97.2373 150.518 94.649 146.958 93.9166C145.361 93.5635 143.694 93.7016 142.178 94.3125C140.862 94.9085 139.66 95.7278 138.626 96.734C137.53 97.7362 136.519 98.8275 135.407 99.8139C134.248 100.866 132.911 101.707 131.46 102.298C128.314 103.547 124.865 103.697 121.519 103.661C117.32 103.615 113.021 103.33 108.953 104.591C108.439 104.75 108.658 105.556 109.175 105.396H109.175Z" fill="#3F3D56"/>
<path d="M156.624 94.6522L158.722 98.3385L159.737 100.122C159.917 100.439 160.103 100.754 160.278 101.073C160.386 101.27 160.622 101.624 160.397 101.81C160.199 101.906 159.977 101.941 159.759 101.909C159.389 101.91 159.019 101.902 158.65 101.898L156.569 101.877L152.271 101.834C152.162 101.837 152.059 101.883 151.984 101.961C151.908 102.039 151.866 102.143 151.866 102.251C151.866 102.36 151.908 102.464 151.984 102.542C152.059 102.619 152.162 102.665 152.271 102.669C154.766 102.694 157.263 102.747 159.759 102.744C160.195 102.786 160.63 102.667 160.984 102.41C161.157 102.239 161.272 102.017 161.311 101.777C161.351 101.536 161.314 101.29 161.206 101.071C160.96 100.536 160.677 100.018 160.359 99.5222L159.445 97.9169L157.348 94.2306C157.29 94.139 157.198 94.0734 157.093 94.0477C156.987 94.0221 156.876 94.0383 156.782 94.093C156.688 94.1476 156.619 94.2365 156.59 94.3409C156.56 94.4452 156.573 94.5568 156.624 94.6522V94.6522Z" fill="#3F3D56"/>
<path d="M184.348 103.685H165.069C164.964 103.685 164.859 103.665 164.761 103.625C164.664 103.585 164.575 103.526 164.5 103.452C164.425 103.378 164.366 103.29 164.325 103.193C164.284 103.096 164.263 102.992 164.263 102.886C164.262 102.781 164.283 102.677 164.323 102.58C164.363 102.482 164.422 102.394 164.497 102.319C164.571 102.245 164.66 102.185 164.757 102.145C164.854 102.104 164.959 102.083 165.064 102.083C165.066 102.083 165.068 102.083 165.069 102.083H184.348C184.453 102.083 184.558 102.103 184.656 102.143C184.753 102.183 184.842 102.242 184.917 102.316C184.992 102.39 185.052 102.478 185.092 102.575C185.133 102.672 185.154 102.776 185.154 102.882C185.155 102.987 185.134 103.091 185.094 103.188C185.054 103.286 184.995 103.374 184.921 103.449C184.846 103.523 184.758 103.583 184.66 103.623C184.563 103.664 184.458 103.685 184.353 103.685C184.351 103.685 184.349 103.685 184.348 103.685Z" fill="#E6E6E6"/>
<path d="M184.348 116.584H165.069C164.964 116.584 164.859 116.564 164.762 116.524C164.664 116.484 164.575 116.425 164.501 116.351C164.426 116.277 164.366 116.189 164.326 116.092C164.285 115.995 164.264 115.891 164.264 115.786C164.263 115.68 164.284 115.576 164.324 115.479C164.364 115.382 164.423 115.293 164.497 115.219C164.572 115.144 164.66 115.085 164.757 115.044C164.855 115.004 164.959 114.983 165.064 114.982C165.066 114.982 165.068 114.982 165.069 114.982H184.348C184.453 114.982 184.558 115.002 184.655 115.042C184.753 115.082 184.842 115.141 184.916 115.215C184.991 115.289 185.051 115.377 185.091 115.474C185.132 115.571 185.153 115.675 185.153 115.781C185.154 115.886 185.133 115.99 185.093 116.087C185.053 116.185 184.994 116.273 184.92 116.348C184.846 116.422 184.757 116.481 184.66 116.522C184.563 116.563 184.458 116.584 184.353 116.584C184.351 116.584 184.349 116.584 184.348 116.584Z" fill="#E6E6E6"/>
<path d="M203.273 110.134H165.069C164.964 110.135 164.859 110.114 164.761 110.075C164.664 110.035 164.575 109.976 164.5 109.902C164.425 109.828 164.366 109.74 164.325 109.642C164.284 109.545 164.263 109.441 164.263 109.336C164.262 109.231 164.283 109.126 164.323 109.029C164.363 108.932 164.422 108.843 164.497 108.769C164.571 108.694 164.659 108.635 164.757 108.594C164.854 108.554 164.959 108.533 165.064 108.533C165.066 108.533 165.068 108.533 165.069 108.533H203.273C203.378 108.532 203.483 108.553 203.581 108.592C203.678 108.632 203.767 108.691 203.842 108.765C203.917 108.839 203.977 108.928 204.017 109.025C204.058 109.122 204.079 109.226 204.079 109.331C204.08 109.436 204.059 109.541 204.019 109.638C203.979 109.735 203.92 109.824 203.846 109.898C203.771 109.973 203.683 110.032 203.585 110.073C203.488 110.113 203.383 110.134 203.278 110.134C203.276 110.134 203.274 110.134 203.273 110.134Z" fill="#E6E6E6"/>
<path d="M177.695 96.1215C181.936 90.3889 189.18 87.9171 193.548 82.2934C194.564 81.0149 195.35 79.5712 195.874 78.026C196.281 76.655 196.58 75.2542 196.768 73.8366C197.222 70.9782 197.758 67.933 200.27 66.1209C203.578 63.7346 207.901 64.3194 211.68 64.8635C211.788 64.8762 211.896 64.8466 211.983 64.7809C212.069 64.7152 212.127 64.6186 212.143 64.5115C212.16 64.4044 212.134 64.2951 212.071 64.2067C212.008 64.1183 211.913 64.0577 211.806 64.0377C208.333 63.5379 204.619 63.048 201.315 64.5601C199.819 65.2187 198.558 66.3142 197.699 67.702C196.993 68.9592 196.512 70.3291 196.276 71.7506C195.989 73.2055 195.822 74.6818 195.513 76.1327C195.204 77.6653 194.627 79.1319 193.808 80.4656C192.016 83.3289 189.326 85.4876 186.609 87.4338C183.199 89.8769 179.566 92.1862 177.037 95.6041C176.718 96.0353 177.374 96.5558 177.695 96.1215L177.695 96.1215Z" fill="#3F3D56"/>
<path d="M209.541 59.4444L213.421 61.1757L215.298 62.0135C215.632 62.1624 215.968 62.3065 216.299 62.4603C216.503 62.5547 216.903 62.7009 216.833 62.9837C216.784 63.1763 216.526 63.3313 216.378 63.4401C216.08 63.6591 215.777 63.8709 215.477 64.0862L213.789 65.2977L210.299 67.8015C210.214 67.8686 210.158 67.9661 210.144 68.0735C210.129 68.1808 210.157 68.2896 210.222 68.3769C210.286 68.4641 210.382 68.5231 210.489 68.5413C210.596 68.5595 210.706 68.5355 210.796 68.4744C212.821 67.0209 214.865 65.5886 216.874 64.1131C217.25 63.8894 217.53 63.5364 217.662 63.1207C217.7 62.88 217.66 62.6337 217.55 62.4166C217.439 62.1995 217.263 62.0225 217.046 61.9107C216.529 61.6247 215.994 61.3748 215.443 61.1628L213.753 60.4088L209.873 58.6775C209.772 58.6379 209.659 58.6391 209.559 58.6807C209.458 58.7224 209.378 58.8013 209.335 58.9008C209.292 59.0003 209.289 59.1126 209.328 59.214C209.366 59.3155 209.442 59.3981 209.541 59.4444L209.541 59.4444Z" fill="#3F3D56"/>
<path d="M244.392 63.8697H225.113C225.008 63.8701 224.903 63.8498 224.805 63.8099C224.708 63.77 224.619 63.7113 224.544 63.6372C224.469 63.563 224.409 63.4749 224.369 63.3778C224.328 63.2807 224.307 63.1765 224.307 63.0713C224.306 62.966 224.327 62.8618 224.367 62.7644C224.407 62.6671 224.466 62.5786 224.54 62.504C224.615 62.4294 224.703 62.3701 224.801 62.3297C224.898 62.2892 225.003 62.2682 225.108 62.268C225.11 62.268 225.112 62.268 225.113 62.268H244.392C244.497 62.2676 244.602 62.2879 244.7 62.3278C244.797 62.3677 244.886 62.4264 244.961 62.5006C245.036 62.5747 245.095 62.6628 245.136 62.7599C245.177 62.857 245.198 62.9612 245.198 63.0664C245.199 63.1717 245.178 63.276 245.138 63.3733C245.098 63.4707 245.039 63.5592 244.964 63.6338C244.89 63.7084 244.801 63.7676 244.704 63.8081C244.607 63.8486 244.502 63.8695 244.397 63.8697C244.395 63.8697 244.393 63.8697 244.392 63.8697Z" fill="#6C63FF"/>
<path d="M192.496 121.406C196.738 127.139 203.981 129.611 208.35 135.234C209.365 136.513 210.152 137.956 210.675 139.502C211.083 140.873 211.382 142.273 211.569 143.691C212.023 146.549 212.559 149.595 215.071 151.407C218.38 153.793 222.702 153.208 226.481 152.664C226.589 152.651 226.698 152.681 226.784 152.747C226.871 152.812 226.928 152.909 226.945 153.016C226.961 153.123 226.935 153.233 226.872 153.321C226.809 153.409 226.714 153.47 226.608 153.49C223.135 153.99 219.42 154.48 216.117 152.967C214.621 152.309 213.36 151.213 212.501 149.826C211.795 148.568 211.313 147.199 211.078 145.777C210.79 144.322 210.624 142.846 210.315 141.395C210.005 139.862 209.428 138.396 208.61 137.062C206.818 134.199 204.128 132.04 201.411 130.094C198.001 127.651 194.367 125.342 191.838 121.924C191.519 121.492 192.175 120.972 192.496 121.406L192.496 121.406Z" fill="#3F3D56"/>
<path d="M224.342 158.083L228.222 156.352L230.1 155.514C230.433 155.365 230.77 155.221 231.101 155.067C231.305 154.973 231.705 154.827 231.634 154.544C231.586 154.351 231.327 154.196 231.179 154.088C230.882 153.869 230.579 153.657 230.279 153.441L228.59 152.23L225.101 149.726C225.016 149.659 224.96 149.562 224.945 149.454C224.931 149.347 224.959 149.238 225.023 149.151C225.088 149.064 225.183 149.005 225.29 148.986C225.398 148.968 225.508 148.992 225.597 149.053C227.623 150.507 229.666 151.939 231.676 153.415C232.051 153.638 232.331 153.991 232.464 154.407C232.501 154.648 232.462 154.894 232.351 155.111C232.241 155.328 232.064 155.505 231.847 155.617C231.331 155.903 230.795 156.153 230.244 156.365L228.555 157.119L224.674 158.85C224.573 158.89 224.461 158.889 224.36 158.847C224.26 158.805 224.18 158.726 224.137 158.627C224.094 158.527 224.091 158.415 224.129 158.314C224.168 158.212 224.244 158.13 224.342 158.083H224.342Z" fill="#3F3D56"/>
<path d="M259.193 156.029H239.915C239.702 156.03 239.497 155.946 239.346 155.797C239.195 155.647 239.11 155.444 239.109 155.232C239.108 155.02 239.191 154.816 239.341 154.665C239.491 154.514 239.695 154.429 239.908 154.428C239.91 154.428 239.912 154.428 239.915 154.428H259.193C259.406 154.427 259.611 154.51 259.762 154.66C259.913 154.809 259.998 155.013 259.999 155.225C260 155.437 259.916 155.641 259.767 155.792C259.617 155.943 259.413 156.028 259.2 156.029C259.198 156.029 259.196 156.029 259.193 156.029Z" fill="#6C63FF"/>
<path d="M39.4243 124.9C39.0593 125.621 38.5415 126.254 37.9069 126.756C37.2722 127.258 36.5357 127.617 35.7484 127.807C34.9611 127.997 34.1417 128.015 33.3469 127.858C32.5522 127.702 31.801 127.375 31.1453 126.901L11.0669 136.427L9.72125 130.816L30.1691 118.803C31.0521 117.762 32.2875 117.08 33.641 116.887C34.9946 116.693 36.3723 117.001 37.5132 117.753C38.654 118.504 39.4786 119.647 39.8309 120.964C40.1831 122.282 40.0385 123.682 39.4243 124.9L39.4243 124.9Z" fill="#FFB6B6"/>
<path d="M31.6871 95.965L17.5586 124.746L23.5295 122.048L27.6851 120.169L29.7685 128.059C29.7685 128.059 28.3889 129.396 26.2133 131.153C23.0938 133.675 18.3434 137.069 13.6907 138.64C10.049 139.87 6.47146 139.984 3.78484 137.69C-1.3147 133.336 3.67034 116.042 8.48782 102.876C11.7134 94.0577 14.8608 87.0943 14.8608 87.0943C14.8608 77.7948 32.963 64.4229 36.3226 62.5936C38.2413 61.5523 38.7718 63.0689 38.7718 63.0689L28.2436 78.4352L31.3911 91.1593L32.2819 94.7538L31.6871 95.965Z" fill="#6C63FF"/>
</g>
<defs>
<clipPath id="clip0_2_9">
<rect width="260" height="222" fill="white"/>
</clipPath>
</defs>
</svg>
